<mxfile host="65bd71144e">
    <diagram id="DaXE-o2KZrVlD39p2i48" name="Page-1">
        <mxGraphModel dx="4779" dy="4409" grid="0" gridSize="10" guides="1" tooltips="1" connect="1" arrows="1" fold="1" page="1" pageScale="1" pageWidth="1169" pageHeight="1654" background="#ffffff" math="0" shadow="0">
            <root>
                <mxCell id="0"/>
                <mxCell id="1" parent="0"/>
                <mxCell id="168" style="edgeStyle=none;html=1;exitX=0.5;exitY=1;exitDx=0;exitDy=0;entryX=0.616;entryY=-0.012;entryDx=0;entryDy=0;entryPerimeter=0;fillColor=none;strokeColor=#000000;fontColor=#000000;fontFamily=Times New Roman;fontSize=14;" parent="1" source="2" target="3" edge="1">
                    <mxGeometry relative="1" as="geometry"/>
                </mxCell>
                <mxCell id="169" style="edgeStyle=none;html=1;exitX=0.5;exitY=1;exitDx=0;exitDy=0;fillColor=none;strokeColor=#000000;fontColor=#000000;fontFamily=Times New Roman;fontSize=14;" parent="1" source="2" target="4" edge="1">
                    <mxGeometry relative="1" as="geometry"/>
                </mxCell>
                <mxCell id="170" style="edgeStyle=none;html=1;exitX=0.5;exitY=1;exitDx=0;exitDy=0;entryX=0;entryY=0;entryDx=0;entryDy=0;fillColor=none;strokeColor=#000000;fontColor=#000000;fontFamily=Times New Roman;fontSize=14;" parent="1" source="2" target="5" edge="1">
                    <mxGeometry relative="1" as="geometry"/>
                </mxCell>
                <mxCell id="171" style="edgeStyle=none;html=1;exitX=0.5;exitY=1;exitDx=0;exitDy=0;entryX=0;entryY=0.5;entryDx=0;entryDy=0;fillColor=none;strokeColor=#000000;fontColor=#000000;fontFamily=Times New Roman;fontSize=14;" parent="1" source="2" target="6" edge="1">
                    <mxGeometry relative="1" as="geometry"/>
                </mxCell>
                <mxCell id="2" value="ADMIN" style="rounded=0;whiteSpace=wrap;html=1;fillColor=none;strokeColor=#000000;fontColor=#000000;fontFamily=Times New Roman;fontSize=14;" parent="1" vertex="1">
                    <mxGeometry x="357" y="232" width="120" height="60" as="geometry"/>
                </mxCell>
                <mxCell id="3" value="Admin&amp;nbsp;&lt;br style=&quot;font-size: 14px;&quot;&gt;Id" style="ellipse;whiteSpace=wrap;html=1;fillColor=none;strokeColor=#000000;fontColor=#000000;fontFamily=Times New Roman;fontSize=14;" parent="1" vertex="1">
                    <mxGeometry x="292" y="362" width="90" height="60" as="geometry"/>
                </mxCell>
                <mxCell id="4" value="Admin&amp;nbsp;&lt;br style=&quot;font-size: 14px;&quot;&gt;Name" style="ellipse;whiteSpace=wrap;html=1;fillColor=none;strokeColor=#000000;fontColor=#000000;fontFamily=Times New Roman;fontSize=14;" parent="1" vertex="1">
                    <mxGeometry x="387" y="382" width="90" height="60" as="geometry"/>
                </mxCell>
                <mxCell id="5" value="Password" style="ellipse;whiteSpace=wrap;html=1;fillColor=none;strokeColor=#000000;fontColor=#000000;fontFamily=Times New Roman;fontSize=14;" parent="1" vertex="1">
                    <mxGeometry x="482" y="382" width="90" height="60" as="geometry"/>
                </mxCell>
                <mxCell id="6" value="Admin&amp;nbsp;&lt;br style=&quot;font-size: 14px;&quot;&gt;Login&amp;nbsp;" style="ellipse;whiteSpace=wrap;html=1;fillColor=none;strokeColor=#000000;fontColor=#000000;fontFamily=Times New Roman;fontSize=14;" parent="1" vertex="1">
                    <mxGeometry x="502" y="312" width="90" height="60" as="geometry"/>
                </mxCell>
                <mxCell id="13" value="manages" style="rhombus;whiteSpace=wrap;html=1;fillColor=none;strokeColor=#000000;fontColor=#000000;fontFamily=Times New Roman;fontSize=14;" parent="1" vertex="1">
                    <mxGeometry x="652" y="342" width="80" height="80" as="geometry"/>
                </mxCell>
                <mxCell id="14" value="" style="endArrow=none;html=1;entryX=0.5;entryY=0;entryDx=0;entryDy=0;exitX=1;exitY=0.5;exitDx=0;exitDy=0;rounded=0;fillColor=none;strokeColor=#000000;fontColor=#000000;fontFamily=Times New Roman;fontSize=14;" parent="1" source="2" target="13" edge="1">
                    <mxGeometry width="50" height="50" relative="1" as="geometry">
                        <mxPoint x="272" y="252" as="sourcePoint"/>
                        <mxPoint x="322" y="202" as="targetPoint"/>
                        <Array as="points">
                            <mxPoint x="692" y="262"/>
                        </Array>
                    </mxGeometry>
                </mxCell>
                <mxCell id="15" value="PRODUCTS" style="rounded=0;whiteSpace=wrap;html=1;fillColor=none;strokeColor=#000000;fontColor=#000000;fontFamily=Times New Roman;fontSize=14;" parent="1" vertex="1">
                    <mxGeometry x="632" y="505" width="120" height="60" as="geometry"/>
                </mxCell>
                <mxCell id="18" value="Product&lt;br style=&quot;font-size: 14px;&quot;&gt;Id" style="ellipse;whiteSpace=wrap;html=1;fillColor=none;strokeColor=#000000;fontColor=#000000;fontFamily=Times New Roman;fontSize=14;" parent="1" vertex="1">
                    <mxGeometry x="667" y="698" width="90" height="60" as="geometry"/>
                </mxCell>
                <mxCell id="19" value="Product&amp;nbsp;&lt;br style=&quot;font-size: 14px;&quot;&gt;Name" style="ellipse;whiteSpace=wrap;html=1;fillColor=none;strokeColor=#000000;fontColor=#000000;fontFamily=Times New Roman;fontSize=14;" parent="1" vertex="1">
                    <mxGeometry x="585" y="731" width="90" height="60" as="geometry"/>
                </mxCell>
                <mxCell id="20" value="Stock&lt;br style=&quot;font-size: 14px;&quot;&gt;Status" style="ellipse;whiteSpace=wrap;html=1;fillColor=none;strokeColor=#000000;fontColor=#000000;fontFamily=Times New Roman;fontSize=14;" parent="1" vertex="1">
                    <mxGeometry x="528" y="595" width="90" height="60" as="geometry"/>
                </mxCell>
                <mxCell id="21" value="Img" style="ellipse;whiteSpace=wrap;html=1;fillColor=none;strokeColor=#000000;fontColor=#000000;fontFamily=Times New Roman;fontSize=14;" parent="1" vertex="1">
                    <mxGeometry x="757" y="682" width="90" height="60" as="geometry"/>
                </mxCell>
                <mxCell id="28" value="Quantity" style="ellipse;whiteSpace=wrap;html=1;fillColor=none;strokeColor=#000000;fontColor=#000000;fontFamily=Times New Roman;fontSize=14;" parent="1" vertex="1">
                    <mxGeometry x="540" y="672" width="90" height="60" as="geometry"/>
                </mxCell>
                <mxCell id="29" value="Category&lt;br style=&quot;font-size: 14px;&quot;&gt;Id" style="ellipse;whiteSpace=wrap;html=1;fillColor=none;strokeColor=#000000;fontColor=#000000;fontFamily=Times New Roman;fontSize=14;" parent="1" vertex="1">
                    <mxGeometry x="272" y="622" width="90" height="60" as="geometry"/>
                </mxCell>
                <mxCell id="30" value="CATEGORY" style="rounded=0;whiteSpace=wrap;html=1;fillColor=none;strokeColor=#000000;fontColor=#000000;fontFamily=Times New Roman;fontSize=14;" parent="1" vertex="1">
                    <mxGeometry x="277" y="495" width="120" height="60" as="geometry"/>
                </mxCell>
                <mxCell id="32" value="For" style="rhombus;whiteSpace=wrap;html=1;fillColor=none;strokeColor=#000000;fontColor=#000000;fontFamily=Times New Roman;fontSize=14;" parent="1" vertex="1">
                    <mxGeometry x="475" y="485" width="80" height="80" as="geometry"/>
                </mxCell>
                <mxCell id="35" value="Category&amp;nbsp;&lt;br style=&quot;font-size: 14px;&quot;&gt;Name" style="ellipse;whiteSpace=wrap;html=1;fillColor=none;strokeColor=#000000;fontColor=#000000;fontFamily=Times New Roman;fontSize=14;" parent="1" vertex="1">
                    <mxGeometry x="387" y="612" width="90" height="60" as="geometry"/>
                </mxCell>
                <mxCell id="38" value="Status" style="ellipse;whiteSpace=wrap;html=1;fillColor=none;strokeColor=#000000;fontColor=#000000;fontFamily=Times New Roman;fontSize=14;" parent="1" vertex="1">
                    <mxGeometry x="342" y="682" width="90" height="60" as="geometry"/>
                </mxCell>
                <mxCell id="40" value="moves to" style="rhombus;whiteSpace=wrap;html=1;fillColor=none;strokeColor=#000000;fontColor=#000000;fontFamily=Times New Roman;fontSize=14;" parent="1" vertex="1">
                    <mxGeometry x="796" y="488" width="80" height="80" as="geometry"/>
                </mxCell>
                <mxCell id="42" value="Billing" style="rounded=0;whiteSpace=wrap;html=1;fillColor=none;strokeColor=#000000;fontColor=#000000;fontFamily=Times New Roman;fontSize=14;" parent="1" vertex="1">
                    <mxGeometry x="902" y="1359" width="130" height="60" as="geometry"/>
                </mxCell>
                <mxCell id="44" value="Price" style="ellipse;whiteSpace=wrap;html=1;fillColor=none;strokeColor=#000000;fontColor=#000000;fontFamily=Times New Roman;fontSize=14;" parent="1" vertex="1">
                    <mxGeometry x="752" y="602" width="90" height="60" as="geometry"/>
                </mxCell>
                <mxCell id="46" value="Bill&lt;br style=&quot;font-size: 14px;&quot;&gt;id" style="ellipse;whiteSpace=wrap;html=1;fillColor=none;strokeColor=#000000;fontColor=#000000;fontFamily=Times New Roman;fontSize=14;" parent="1" vertex="1">
                    <mxGeometry x="1280" y="1332" width="90" height="60" as="geometry"/>
                </mxCell>
                <mxCell id="47" value="F_name" style="ellipse;whiteSpace=wrap;html=1;fillColor=none;strokeColor=#000000;fontColor=#000000;fontFamily=Times New Roman;fontSize=14;" parent="1" vertex="1">
                    <mxGeometry x="1210" y="1290" width="90" height="60" as="geometry"/>
                </mxCell>
                <mxCell id="48" value="L_name" style="ellipse;whiteSpace=wrap;html=1;fillColor=none;strokeColor=#000000;fontColor=#000000;fontFamily=Times New Roman;fontSize=14;" parent="1" vertex="1">
                    <mxGeometry x="1094" y="1272" width="90" height="60" as="geometry"/>
                </mxCell>
                <mxCell id="50" value="Address_1" style="ellipse;whiteSpace=wrap;html=1;fillColor=none;strokeColor=#000000;fontColor=#000000;fontFamily=Times New Roman;fontSize=14;" parent="1" vertex="1">
                    <mxGeometry x="1176" y="1384" width="90" height="60" as="geometry"/>
                </mxCell>
                <mxCell id="52" value="Address_2" style="ellipse;whiteSpace=wrap;html=1;fillColor=none;strokeColor=#000000;fontColor=#000000;fontFamily=Times New Roman;fontSize=14;" parent="1" vertex="1">
                    <mxGeometry x="1102" y="1431" width="90" height="60" as="geometry"/>
                </mxCell>
                <mxCell id="57" value="add to" style="rhombus;whiteSpace=wrap;html=1;fillColor=none;strokeColor=#000000;fontColor=#000000;fontFamily=Times New Roman;fontSize=14;" parent="1" vertex="1">
                    <mxGeometry x="892" y="312" width="80" height="80" as="geometry"/>
                </mxCell>
                <mxCell id="58" value="CUSTOMER" style="rounded=0;whiteSpace=wrap;html=1;direction=east;fillColor=none;strokeColor=#000000;fontColor=#000000;fontFamily=Times New Roman;fontSize=14;" parent="1" vertex="1">
                    <mxGeometry x="872" y="202" width="120" height="60" as="geometry"/>
                </mxCell>
                <mxCell id="60" value="" style="endArrow=none;html=1;entryX=0.5;entryY=0;entryDx=0;entryDy=0;exitX=0.5;exitY=1;exitDx=0;exitDy=0;fillColor=none;strokeColor=#000000;fontColor=#000000;fontFamily=Times New Roman;fontSize=14;" parent="1" source="58" target="57" edge="1">
                    <mxGeometry width="50" height="50" relative="1" as="geometry">
                        <mxPoint x="1262" y="262" as="sourcePoint"/>
                        <mxPoint x="1312" y="212" as="targetPoint"/>
                    </mxGeometry>
                </mxCell>
                <mxCell id="61" value="Cust&lt;br style=&quot;font-size: 14px;&quot;&gt;id" style="ellipse;whiteSpace=wrap;html=1;fillColor=none;strokeColor=#000000;fontColor=#000000;fontFamily=Times New Roman;fontSize=14;" parent="1" vertex="1">
                    <mxGeometry x="1015" y="101" width="90" height="57" as="geometry"/>
                </mxCell>
                <mxCell id="62" value="Cust&lt;br style=&quot;font-size: 14px;&quot;&gt;F_name" style="ellipse;whiteSpace=wrap;html=1;fillColor=none;strokeColor=#000000;fontColor=#000000;fontFamily=Times New Roman;fontSize=14;" parent="1" vertex="1">
                    <mxGeometry x="1112" y="88" width="90" height="60" as="geometry"/>
                </mxCell>
                <mxCell id="63" value="Password" style="ellipse;whiteSpace=wrap;html=1;fillColor=none;strokeColor=#000000;fontColor=#000000;fontFamily=Times New Roman;fontSize=14;" parent="1" vertex="1">
                    <mxGeometry x="1212" y="262" width="90" height="60" as="geometry"/>
                </mxCell>
                <mxCell id="65" value="Cust&lt;br style=&quot;font-size: 14px;&quot;&gt;L_name" style="ellipse;whiteSpace=wrap;html=1;fillColor=none;strokeColor=#000000;fontColor=#000000;fontFamily=Times New Roman;fontSize=14;" parent="1" vertex="1">
                    <mxGeometry x="1199" y="124" width="90" height="60" as="geometry"/>
                </mxCell>
                <mxCell id="67" value="Address_1" style="ellipse;whiteSpace=wrap;html=1;fillColor=none;strokeColor=#000000;fontColor=#000000;fontFamily=Times New Roman;fontSize=14;" parent="1" vertex="1">
                    <mxGeometry x="1159" y="209" width="90" height="60" as="geometry"/>
                </mxCell>
                <mxCell id="68" value="Address_2" style="ellipse;whiteSpace=wrap;html=1;fillColor=none;strokeColor=#000000;fontColor=#000000;fontFamily=Times New Roman;fontSize=14;" parent="1" vertex="1">
                    <mxGeometry x="1255" y="175" width="90" height="60" as="geometry"/>
                </mxCell>
                <mxCell id="69" value="Contact" style="ellipse;whiteSpace=wrap;html=1;fillColor=none;strokeColor=#000000;fontColor=#000000;fontFamily=Times New Roman;fontSize=14;" parent="1" vertex="1">
                    <mxGeometry x="1102" y="272" width="90" height="60" as="geometry"/>
                </mxCell>
                <mxCell id="70" value="mail" style="ellipse;whiteSpace=wrap;html=1;fillColor=none;strokeColor=#000000;fontColor=#000000;fontFamily=Times New Roman;fontSize=14;" parent="1" vertex="1">
                    <mxGeometry x="1007" y="272" width="90" height="60" as="geometry"/>
                </mxCell>
                <mxCell id="79" value="Manages" style="rhombus;whiteSpace=wrap;html=1;fillColor=none;strokeColor=#000000;fontColor=#000000;fontFamily=Times New Roman;fontSize=14;" parent="1" vertex="1">
                    <mxGeometry x="202" y="222" width="80" height="80" as="geometry"/>
                </mxCell>
                <mxCell id="80" value="" style="endArrow=none;html=1;rounded=0;entryX=0;entryY=0.5;entryDx=0;entryDy=0;exitX=1;exitY=0.5;exitDx=0;exitDy=0;fillColor=none;strokeColor=#000000;fontColor=#000000;fontFamily=Times New Roman;fontSize=14;" parent="1" source="79" target="2" edge="1">
                    <mxGeometry width="50" height="50" relative="1" as="geometry">
                        <mxPoint x="352" y="332" as="sourcePoint"/>
                        <mxPoint x="402" y="282" as="targetPoint"/>
                    </mxGeometry>
                </mxCell>
                <mxCell id="81" value="SUPPLIERS" style="rounded=0;whiteSpace=wrap;html=1;fillColor=none;strokeColor=#000000;fontColor=#000000;fontFamily=Times New Roman;fontSize=14;" parent="1" vertex="1">
                    <mxGeometry x="-18" y="232" width="120" height="60" as="geometry"/>
                </mxCell>
                <mxCell id="83" value="Supplier&lt;br style=&quot;font-size: 14px;&quot;&gt;id" style="ellipse;whiteSpace=wrap;html=1;fillColor=none;strokeColor=#000000;fontColor=#000000;fontFamily=Times New Roman;fontSize=14;" parent="1" vertex="1">
                    <mxGeometry x="132" y="302" width="90" height="60" as="geometry"/>
                </mxCell>
                <mxCell id="84" value="Product&lt;br style=&quot;font-size: 14px;&quot;&gt;id" style="ellipse;whiteSpace=wrap;html=1;fillColor=none;strokeColor=#000000;fontColor=#000000;fontFamily=Times New Roman;fontSize=14;" parent="1" vertex="1">
                    <mxGeometry x="102" y="362" width="90" height="60" as="geometry"/>
                </mxCell>
                <mxCell id="89" value="Compony_name" style="ellipse;whiteSpace=wrap;html=1;fillColor=none;strokeColor=#000000;fontColor=#000000;fontFamily=Times New Roman;fontSize=14;" parent="1" vertex="1">
                    <mxGeometry x="92" y="432" width="90" height="60" as="geometry"/>
                </mxCell>
                <mxCell id="90" value="Address_1" style="ellipse;whiteSpace=wrap;html=1;fillColor=none;strokeColor=#000000;fontColor=#000000;fontFamily=Times New Roman;fontSize=14;" parent="1" vertex="1">
                    <mxGeometry x="-108" y="332" width="90" height="60" as="geometry"/>
                </mxCell>
                <mxCell id="91" value="Address_2" style="ellipse;whiteSpace=wrap;html=1;fillColor=none;strokeColor=#000000;fontColor=#000000;fontFamily=Times New Roman;fontSize=14;" parent="1" vertex="1">
                    <mxGeometry x="-68" y="402" width="90" height="60" as="geometry"/>
                </mxCell>
                <mxCell id="92" value="City" style="ellipse;whiteSpace=wrap;html=1;fillColor=none;strokeColor=#000000;fontColor=#000000;fontFamily=Times New Roman;fontSize=14;" parent="1" vertex="1">
                    <mxGeometry x="2" y="452" width="90" height="60" as="geometry"/>
                </mxCell>
                <mxCell id="98" value="Request" style="rhombus;whiteSpace=wrap;html=1;fillColor=none;strokeColor=#000000;fontColor=#000000;fontFamily=Times New Roman;fontSize=14;" parent="1" vertex="1">
                    <mxGeometry x="730" y="192" width="80" height="80" as="geometry"/>
                </mxCell>
                <mxCell id="99" value="RETURN_PRODUCT" style="rounded=0;whiteSpace=wrap;html=1;fillColor=none;strokeColor=#000000;fontColor=#000000;fontFamily=Times New Roman;fontSize=14;" parent="1" vertex="1">
                    <mxGeometry x="702" y="12" width="155" height="60" as="geometry"/>
                </mxCell>
                <mxCell id="102" value="Return&lt;br style=&quot;font-size: 14px;&quot;&gt;id" style="ellipse;whiteSpace=wrap;html=1;fillColor=none;strokeColor=#000000;fontColor=#000000;fontFamily=Times New Roman;fontSize=14;" parent="1" vertex="1">
                    <mxGeometry x="659" y="-133" width="90" height="60" as="geometry"/>
                </mxCell>
                <mxCell id="103" value="Return" style="ellipse;whiteSpace=wrap;html=1;fillColor=none;strokeColor=#000000;fontColor=#000000;fontFamily=Times New Roman;fontSize=14;" parent="1" vertex="1">
                    <mxGeometry x="742" y="-161" width="90" height="60" as="geometry"/>
                </mxCell>
                <mxCell id="104" value="Cust&lt;br style=&quot;font-size: 14px;&quot;&gt;id" style="ellipse;whiteSpace=wrap;html=1;fillColor=none;strokeColor=#000000;fontColor=#000000;fontFamily=Times New Roman;fontSize=14;" parent="1" vertex="1">
                    <mxGeometry x="909" y="-111" width="90" height="60" as="geometry"/>
                </mxCell>
                <mxCell id="105" value="Cust&lt;br style=&quot;font-size: 14px;&quot;&gt;id" style="ellipse;whiteSpace=wrap;html=1;fillColor=none;strokeColor=#000000;fontColor=#000000;fontFamily=Times New Roman;fontSize=14;" parent="1" vertex="1">
                    <mxGeometry x="899" y="-34" width="90" height="60" as="geometry"/>
                </mxCell>
                <mxCell id="106" value="Cust&lt;br style=&quot;font-size: 14px;&quot;&gt;id" style="ellipse;whiteSpace=wrap;html=1;fillColor=none;strokeColor=#000000;fontColor=#000000;fontFamily=Times New Roman;fontSize=14;" parent="1" vertex="1">
                    <mxGeometry x="835" y="-155" width="90" height="60" as="geometry"/>
                </mxCell>
                <mxCell id="107" value="Cust&lt;br style=&quot;font-size: 14px;&quot;&gt;id" style="ellipse;whiteSpace=wrap;html=1;fillColor=none;strokeColor=#000000;fontColor=#000000;fontFamily=Times New Roman;fontSize=14;" parent="1" vertex="1">
                    <mxGeometry x="618" y="-73" width="90" height="60" as="geometry"/>
                </mxCell>
                <mxCell id="115" value="Order" style="rounded=0;whiteSpace=wrap;html=1;fillColor=none;strokeColor=#000000;fontColor=#000000;fontFamily=Times New Roman;fontSize=14;" parent="1" vertex="1">
                    <mxGeometry x="919" y="785" width="120" height="60" as="geometry"/>
                </mxCell>
                <mxCell id="116" value="customer_id" style="ellipse;whiteSpace=wrap;html=1;fillColor=none;strokeColor=#000000;fontColor=#000000;fontFamily=Times New Roman;fontSize=14;" parent="1" vertex="1">
                    <mxGeometry x="1137" y="678" width="90" height="60" as="geometry"/>
                </mxCell>
                <mxCell id="117" value="Order_id" style="ellipse;whiteSpace=wrap;html=1;fillColor=none;strokeColor=#000000;fontColor=#000000;fontFamily=Times New Roman;fontSize=14;" parent="1" vertex="1">
                    <mxGeometry x="1042" y="678" width="90" height="60" as="geometry"/>
                </mxCell>
                <mxCell id="118" value="cart_id" style="ellipse;whiteSpace=wrap;html=1;fillColor=none;strokeColor=#000000;fontColor=#000000;fontFamily=Times New Roman;fontSize=14;" parent="1" vertex="1">
                    <mxGeometry x="1329" y="731" width="90" height="60" as="geometry"/>
                </mxCell>
                <mxCell id="119" value="order_id" style="ellipse;whiteSpace=wrap;html=1;fillColor=none;strokeColor=#000000;fontColor=#000000;fontFamily=Times New Roman;fontSize=14;" parent="1" vertex="1">
                    <mxGeometry x="1230" y="712" width="90" height="60" as="geometry"/>
                </mxCell>
                <mxCell id="120" value="payment_type" style="ellipse;whiteSpace=wrap;html=1;fillColor=none;strokeColor=#000000;fontColor=#000000;fontFamily=Times New Roman;fontSize=14;" parent="1" vertex="1">
                    <mxGeometry x="1196" y="820" width="90" height="60" as="geometry"/>
                </mxCell>
                <mxCell id="121" value="payment_id" style="ellipse;whiteSpace=wrap;html=1;fillColor=none;strokeColor=#000000;fontColor=#000000;fontFamily=Times New Roman;fontSize=14;" parent="1" vertex="1">
                    <mxGeometry x="1092" y="837" width="90" height="60" as="geometry"/>
                </mxCell>
                <mxCell id="122" value="quantity" style="ellipse;whiteSpace=wrap;html=1;fillColor=none;strokeColor=#000000;fontColor=#000000;fontFamily=Times New Roman;fontSize=14;" parent="1" vertex="1">
                    <mxGeometry x="1302" y="797" width="90" height="60" as="geometry"/>
                </mxCell>
                <mxCell id="134" value="confirm" style="rhombus;whiteSpace=wrap;html=1;fillColor=none;strokeColor=#000000;fontColor=#000000;fontFamily=Times New Roman;fontSize=14;" parent="1" vertex="1">
                    <mxGeometry x="935" y="935" width="80" height="80" as="geometry"/>
                </mxCell>
                <mxCell id="139" value="order_details" style="rounded=0;whiteSpace=wrap;html=1;fillColor=none;strokeColor=#000000;fontColor=#000000;fontFamily=Times New Roman;fontSize=14;" parent="1" vertex="1">
                    <mxGeometry x="915" y="1092" width="120" height="60" as="geometry"/>
                </mxCell>
                <mxCell id="141" value="customer_id" style="ellipse;whiteSpace=wrap;html=1;fillColor=none;strokeColor=#000000;fontColor=#000000;fontFamily=Times New Roman;fontSize=14;" parent="1" vertex="1">
                    <mxGeometry x="1079" y="1152" width="90" height="60" as="geometry"/>
                </mxCell>
                <mxCell id="142" value="order_id" style="ellipse;whiteSpace=wrap;html=1;fillColor=none;strokeColor=#000000;fontColor=#000000;fontFamily=Times New Roman;fontSize=14;" parent="1" vertex="1">
                    <mxGeometry x="1082" y="1032" width="90" height="60" as="geometry"/>
                </mxCell>
                <mxCell id="145" value="genertaes" style="rhombus;whiteSpace=wrap;html=1;fillColor=none;strokeColor=#000000;fontColor=#000000;fontFamily=Times New Roman;fontSize=14;" parent="1" vertex="1">
                    <mxGeometry x="932" y="1210" width="80" height="80" as="geometry"/>
                </mxCell>
                <mxCell id="146" value="" style="endArrow=none;html=1;entryX=0.5;entryY=1;entryDx=0;entryDy=0;exitX=0.5;exitY=0;exitDx=0;exitDy=0;fillColor=none;strokeColor=#000000;fontColor=#000000;fontFamily=Times New Roman;fontSize=14;" parent="1" source="145" target="139" edge="1">
                    <mxGeometry width="50" height="50" relative="1" as="geometry">
                        <mxPoint x="1192" y="1002" as="sourcePoint"/>
                        <mxPoint x="1242" y="952" as="targetPoint"/>
                    </mxGeometry>
                </mxCell>
                <mxCell id="147" value="" style="endArrow=none;html=1;entryX=0.5;entryY=1;entryDx=0;entryDy=0;exitX=0.5;exitY=0;exitDx=0;exitDy=0;fillColor=none;strokeColor=#000000;fontColor=#000000;fontFamily=Times New Roman;fontSize=14;" parent="1" source="42" target="145" edge="1">
                    <mxGeometry width="50" height="50" relative="1" as="geometry">
                        <mxPoint x="1192" y="1002" as="sourcePoint"/>
                        <mxPoint x="1242" y="952" as="targetPoint"/>
                    </mxGeometry>
                </mxCell>
                <mxCell id="148" value="cart" style="rounded=0;whiteSpace=wrap;html=1;fillColor=none;strokeColor=#000000;fontColor=#000000;fontFamily=Times New Roman;fontSize=14;" parent="1" vertex="1">
                    <mxGeometry x="912" y="503" width="120" height="60" as="geometry"/>
                </mxCell>
                <mxCell id="150" value="place" style="rhombus;whiteSpace=wrap;html=1;fillColor=none;strokeColor=#000000;fontColor=#000000;fontFamily=Times New Roman;fontSize=14;" parent="1" vertex="1">
                    <mxGeometry x="932" y="612" width="80" height="80" as="geometry"/>
                </mxCell>
                <mxCell id="153" value="cart_id" style="ellipse;whiteSpace=wrap;html=1;fillColor=none;strokeColor=#000000;fontColor=#000000;fontFamily=Times New Roman;fontSize=14;" parent="1" vertex="1">
                    <mxGeometry x="1047" y="402" width="90" height="60" as="geometry"/>
                </mxCell>
                <mxCell id="154" value="product_id" style="ellipse;whiteSpace=wrap;html=1;fillColor=none;strokeColor=#000000;fontColor=#000000;fontFamily=Times New Roman;fontSize=14;" parent="1" vertex="1">
                    <mxGeometry x="1128" y="440" width="90" height="60" as="geometry"/>
                </mxCell>
                <mxCell id="155" value="user_id" style="ellipse;whiteSpace=wrap;html=1;fillColor=none;strokeColor=#000000;fontColor=#000000;fontFamily=Times New Roman;fontSize=14;" parent="1" vertex="1">
                    <mxGeometry x="1169" y="498" width="90" height="60" as="geometry"/>
                </mxCell>
                <mxCell id="159" value="quantity" style="ellipse;whiteSpace=wrap;html=1;fillColor=none;strokeColor=#000000;fontColor=#000000;fontFamily=Times New Roman;fontSize=14;" parent="1" vertex="1">
                    <mxGeometry x="1102" y="542" width="90" height="60" as="geometry"/>
                </mxCell>
                <mxCell id="227" value="" style="endArrow=none;html=1;entryX=0.5;entryY=1;entryDx=0;entryDy=0;exitX=0.5;exitY=0;exitDx=0;exitDy=0;fillColor=none;strokeColor=#000000;fontColor=#000000;fontFamily=Times New Roman;fontSize=14;" parent="1" source="134" target="115" edge="1">
                    <mxGeometry width="50" height="50" relative="1" as="geometry">
                        <mxPoint x="832" y="922" as="sourcePoint"/>
                        <mxPoint x="882" y="872" as="targetPoint"/>
                    </mxGeometry>
                </mxCell>
                <mxCell id="ylkIkgIqxPqcDmFFb2RJ-252" value="" style="endArrow=none;html=1;rounded=0;entryX=0.5;entryY=1;entryDx=0;entryDy=0;strokeColor=#000000;fontFamily=Times New Roman;fontSize=14;" parent="1" source="90" target="81" edge="1">
                    <mxGeometry width="50" height="50" relative="1" as="geometry">
                        <mxPoint x="32" y="346" as="sourcePoint"/>
                        <mxPoint x="82" y="296" as="targetPoint"/>
                    </mxGeometry>
                </mxCell>
                <mxCell id="ylkIkgIqxPqcDmFFb2RJ-253" value="" style="endArrow=none;html=1;rounded=0;entryX=0.5;entryY=1;entryDx=0;entryDy=0;strokeColor=#000000;fontFamily=Times New Roman;fontSize=14;" parent="1" source="91" target="81" edge="1">
                    <mxGeometry width="50" height="50" relative="1" as="geometry">
                        <mxPoint x="-21.180194846605445" y="350.78679656440363" as="sourcePoint"/>
                        <mxPoint x="37" y="296" as="targetPoint"/>
                    </mxGeometry>
                </mxCell>
                <mxCell id="ylkIkgIqxPqcDmFFb2RJ-255" value="" style="endArrow=none;html=1;rounded=0;entryX=0.5;entryY=1;entryDx=0;entryDy=0;exitX=0.438;exitY=0.012;exitDx=0;exitDy=0;exitPerimeter=0;strokeColor=#000000;fontFamily=Times New Roman;fontSize=14;" parent="1" source="92" target="81" edge="1">
                    <mxGeometry width="50" height="50" relative="1" as="geometry">
                        <mxPoint x="42" y="446" as="sourcePoint"/>
                        <mxPoint x="114.18" y="413.21" as="targetPoint"/>
                    </mxGeometry>
                </mxCell>
                <mxCell id="ylkIkgIqxPqcDmFFb2RJ-256" value="" style="endArrow=none;html=1;rounded=0;exitX=0.244;exitY=0.05;exitDx=0;exitDy=0;exitPerimeter=0;entryX=0.5;entryY=1;entryDx=0;entryDy=0;strokeColor=#000000;fontFamily=Times New Roman;fontSize=14;" parent="1" source="89" target="81" edge="1">
                    <mxGeometry width="50" height="50" relative="1" as="geometry">
                        <mxPoint x="8.819805153394555" y="380.78679656440363" as="sourcePoint"/>
                        <mxPoint x="82" y="332" as="targetPoint"/>
                    </mxGeometry>
                </mxCell>
                <mxCell id="ylkIkgIqxPqcDmFFb2RJ-257" value="" style="endArrow=none;html=1;rounded=0;exitX=0.227;exitY=0.09;exitDx=0;exitDy=0;exitPerimeter=0;strokeColor=#000000;fontFamily=Times New Roman;fontSize=14;" parent="1" source="84" edge="1">
                    <mxGeometry width="50" height="50" relative="1" as="geometry">
                        <mxPoint x="18.819805153394555" y="390.78679656440363" as="sourcePoint"/>
                        <mxPoint x="41" y="291" as="targetPoint"/>
                    </mxGeometry>
                </mxCell>
                <mxCell id="ylkIkgIqxPqcDmFFb2RJ-258" value="" style="endArrow=none;html=1;rounded=0;exitX=-0.013;exitY=0.417;exitDx=0;exitDy=0;exitPerimeter=0;strokeColor=#000000;fontFamily=Times New Roman;fontSize=14;" parent="1" source="83" edge="1">
                    <mxGeometry width="50" height="50" relative="1" as="geometry">
                        <mxPoint x="28.819805153394555" y="400.78679656440363" as="sourcePoint"/>
                        <mxPoint x="42" y="292" as="targetPoint"/>
                    </mxGeometry>
                </mxCell>
                <mxCell id="ylkIkgIqxPqcDmFFb2RJ-260" value="" style="endArrow=none;html=1;rounded=0;entryX=0.5;entryY=1;entryDx=0;entryDy=0;exitX=0.456;exitY=-0.033;exitDx=0;exitDy=0;exitPerimeter=0;strokeColor=#000000;fontFamily=Times New Roman;fontSize=14;" parent="1" source="38" target="30" edge="1">
                    <mxGeometry width="50" height="50" relative="1" as="geometry">
                        <mxPoint x="358.81980515339455" y="624.7867965644036" as="sourcePoint"/>
                        <mxPoint x="432" y="576" as="targetPoint"/>
                    </mxGeometry>
                </mxCell>
                <mxCell id="ylkIkgIqxPqcDmFFb2RJ-262" value="" style="endArrow=none;html=1;rounded=0;entryX=0.473;entryY=0.99;entryDx=0;entryDy=0;entryPerimeter=0;strokeColor=#000000;fontFamily=Times New Roman;fontSize=14;" parent="1" source="20" target="15" edge="1">
                    <mxGeometry width="50" height="50" relative="1" as="geometry">
                        <mxPoint x="666" y="644" as="sourcePoint"/>
                        <mxPoint x="716" y="594" as="targetPoint"/>
                    </mxGeometry>
                </mxCell>
                <mxCell id="ylkIkgIqxPqcDmFFb2RJ-264" value="" style="endArrow=none;html=1;rounded=0;exitX=0.636;exitY=0.003;exitDx=0;exitDy=0;exitPerimeter=0;entryX=0.455;entryY=0.995;entryDx=0;entryDy=0;entryPerimeter=0;strokeColor=#000000;fontFamily=Times New Roman;fontSize=14;" parent="1" source="28" target="15" edge="1">
                    <mxGeometry width="50" height="50" relative="1" as="geometry">
                        <mxPoint x="645.4200000000001" y="722.1800000000001" as="sourcePoint"/>
                        <mxPoint x="689" y="566" as="targetPoint"/>
                    </mxGeometry>
                </mxCell>
                <mxCell id="ylkIkgIqxPqcDmFFb2RJ-265" value="" style="endArrow=none;html=1;rounded=0;exitX=0.404;exitY=-0.023;exitDx=0;exitDy=0;exitPerimeter=0;entryX=0.455;entryY=1.014;entryDx=0;entryDy=0;entryPerimeter=0;strokeColor=#000000;fontFamily=Times New Roman;fontSize=14;" parent="1" source="19" target="15" edge="1">
                    <mxGeometry width="50" height="50" relative="1" as="geometry">
                        <mxPoint x="620.4200000000001" y="712.1799999999998" as="sourcePoint"/>
                        <mxPoint x="687" y="591" as="targetPoint"/>
                    </mxGeometry>
                </mxCell>
                <mxCell id="ylkIkgIqxPqcDmFFb2RJ-266" value="" style="endArrow=none;html=1;rounded=0;exitX=0.449;exitY=0.023;exitDx=0;exitDy=0;exitPerimeter=0;entryX=0.44;entryY=1.014;entryDx=0;entryDy=0;entryPerimeter=0;strokeColor=#000000;fontFamily=Times New Roman;fontSize=14;" parent="1" source="18" target="15" edge="1">
                    <mxGeometry width="50" height="50" relative="1" as="geometry">
                        <mxPoint x="630.4200000000001" y="722.1799999999998" as="sourcePoint"/>
                        <mxPoint x="704" y="590" as="targetPoint"/>
                    </mxGeometry>
                </mxCell>
                <mxCell id="ylkIkgIqxPqcDmFFb2RJ-267" value="" style="endArrow=none;html=1;rounded=0;exitX=0.298;exitY=0.01;exitDx=0;exitDy=0;exitPerimeter=0;entryX=0.431;entryY=1.014;entryDx=0;entryDy=0;entryPerimeter=0;strokeColor=#000000;fontFamily=Times New Roman;fontSize=14;" parent="1" source="21" target="15" edge="1">
                    <mxGeometry width="50" height="50" relative="1" as="geometry">
                        <mxPoint x="640.4200000000001" y="732.1799999999998" as="sourcePoint"/>
                        <mxPoint x="715" y="584" as="targetPoint"/>
                    </mxGeometry>
                </mxCell>
                <mxCell id="ylkIkgIqxPqcDmFFb2RJ-268" value="" style="endArrow=none;html=1;rounded=0;exitX=0.218;exitY=0.07;exitDx=0;exitDy=0;exitPerimeter=0;entryX=0.44;entryY=1.005;entryDx=0;entryDy=0;entryPerimeter=0;strokeColor=#000000;fontFamily=Times New Roman;fontSize=14;" parent="1" source="44" target="15" edge="1">
                    <mxGeometry width="50" height="50" relative="1" as="geometry">
                        <mxPoint x="650.4200000000001" y="742.1799999999998" as="sourcePoint"/>
                        <mxPoint x="747" y="586" as="targetPoint"/>
                    </mxGeometry>
                </mxCell>
                <mxCell id="ylkIkgIqxPqcDmFFb2RJ-269" value="" style="endArrow=none;html=1;rounded=0;exitX=1;exitY=0.5;exitDx=0;exitDy=0;entryX=0.102;entryY=0.847;entryDx=0;entryDy=0;entryPerimeter=0;strokeColor=#000000;fontFamily=Times New Roman;fontSize=14;" parent="1" source="58" target="61" edge="1">
                    <mxGeometry width="50" height="50" relative="1" as="geometry">
                        <mxPoint x="1025.42" y="286.18" as="sourcePoint"/>
                        <mxPoint x="1102" y="169.00000000000017" as="targetPoint"/>
                    </mxGeometry>
                </mxCell>
                <mxCell id="ylkIkgIqxPqcDmFFb2RJ-272" value="" style="endArrow=none;html=1;rounded=0;exitX=1;exitY=0.5;exitDx=0;exitDy=0;strokeColor=#000000;fontFamily=Times New Roman;fontSize=14;" parent="1" source="58" target="62" edge="1">
                    <mxGeometry width="50" height="50" relative="1" as="geometry">
                        <mxPoint x="1043" y="282" as="sourcePoint"/>
                        <mxPoint x="1119.58" y="164.82000000000016" as="targetPoint"/>
                    </mxGeometry>
                </mxCell>
                <mxCell id="ylkIkgIqxPqcDmFFb2RJ-273" value="" style="endArrow=none;html=1;rounded=0;exitX=1;exitY=0.5;exitDx=0;exitDy=0;entryX=0.001;entryY=0.432;entryDx=0;entryDy=0;entryPerimeter=0;strokeColor=#000000;fontFamily=Times New Roman;fontSize=14;" parent="1" source="58" target="65" edge="1">
                    <mxGeometry width="50" height="50" relative="1" as="geometry">
                        <mxPoint x="1085" y="278.18" as="sourcePoint"/>
                        <mxPoint x="1161.58" y="161.00000000000017" as="targetPoint"/>
                    </mxGeometry>
                </mxCell>
                <mxCell id="ylkIkgIqxPqcDmFFb2RJ-274" value="" style="endArrow=none;html=1;rounded=0;exitX=1;exitY=0.5;exitDx=0;exitDy=0;entryX=0.031;entryY=0.357;entryDx=0;entryDy=0;entryPerimeter=0;strokeColor=#000000;fontFamily=Times New Roman;fontSize=14;" parent="1" source="58" target="68" edge="1">
                    <mxGeometry width="50" height="50" relative="1" as="geometry">
                        <mxPoint x="1052" y="292" as="sourcePoint"/>
                        <mxPoint x="1128.58" y="174.82000000000016" as="targetPoint"/>
                    </mxGeometry>
                </mxCell>
                <mxCell id="ylkIkgIqxPqcDmFFb2RJ-275" value="" style="endArrow=none;html=1;rounded=0;exitX=1;exitY=0.5;exitDx=0;exitDy=0;entryX=0.021;entryY=0.342;entryDx=0;entryDy=0;entryPerimeter=0;strokeColor=#000000;fontFamily=Times New Roman;fontSize=14;" parent="1" source="58" target="67" edge="1">
                    <mxGeometry width="50" height="50" relative="1" as="geometry">
                        <mxPoint x="1044" y="359.18" as="sourcePoint"/>
                        <mxPoint x="1120.58" y="242.00000000000017" as="targetPoint"/>
                    </mxGeometry>
                </mxCell>
                <mxCell id="ylkIkgIqxPqcDmFFb2RJ-277" value="" style="endArrow=none;html=1;rounded=0;exitX=1;exitY=0.5;exitDx=0;exitDy=0;entryX=0.051;entryY=0.271;entryDx=0;entryDy=0;entryPerimeter=0;strokeColor=#000000;fontFamily=Times New Roman;fontSize=14;" parent="1" source="58" target="63" edge="1">
                    <mxGeometry width="50" height="50" relative="1" as="geometry">
                        <mxPoint x="1032" y="299" as="sourcePoint"/>
                        <mxPoint x="1108.58" y="181.82000000000016" as="targetPoint"/>
                    </mxGeometry>
                </mxCell>
                <mxCell id="ylkIkgIqxPqcDmFFb2RJ-278" value="" style="endArrow=none;html=1;rounded=0;exitX=1;exitY=0.5;exitDx=0;exitDy=0;entryX=0.288;entryY=0.041;entryDx=0;entryDy=0;entryPerimeter=0;strokeColor=#000000;fontFamily=Times New Roman;fontSize=14;" parent="1" source="58" target="69" edge="1">
                    <mxGeometry width="50" height="50" relative="1" as="geometry">
                        <mxPoint x="1070" y="300" as="sourcePoint"/>
                        <mxPoint x="1146.58" y="182.82000000000016" as="targetPoint"/>
                    </mxGeometry>
                </mxCell>
                <mxCell id="ylkIkgIqxPqcDmFFb2RJ-280" value="" style="endArrow=none;html=1;rounded=0;exitX=1;exitY=0.5;exitDx=0;exitDy=0;strokeColor=#000000;fontFamily=Times New Roman;fontSize=14;" parent="1" source="148" target="153" edge="1">
                    <mxGeometry width="50" height="50" relative="1" as="geometry">
                        <mxPoint x="1133" y="502" as="sourcePoint"/>
                        <mxPoint x="1183" y="452" as="targetPoint"/>
                    </mxGeometry>
                </mxCell>
                <mxCell id="ylkIkgIqxPqcDmFFb2RJ-281" value="" style="endArrow=none;html=1;rounded=0;exitX=1;exitY=0.5;exitDx=0;exitDy=0;entryX=0;entryY=0.5;entryDx=0;entryDy=0;strokeColor=#000000;fontFamily=Times New Roman;fontSize=14;" parent="1" source="148" target="154" edge="1">
                    <mxGeometry width="50" height="50" relative="1" as="geometry">
                        <mxPoint x="1182" y="498" as="sourcePoint"/>
                        <mxPoint x="1258.58" y="380.82000000000016" as="targetPoint"/>
                    </mxGeometry>
                </mxCell>
                <mxCell id="ylkIkgIqxPqcDmFFb2RJ-282" value="" style="endArrow=none;html=1;rounded=0;exitX=1;exitY=0.5;exitDx=0;exitDy=0;strokeColor=#000000;fontFamily=Times New Roman;fontSize=14;" parent="1" source="148" target="155" edge="1">
                    <mxGeometry width="50" height="50" relative="1" as="geometry">
                        <mxPoint x="1189" y="513" as="sourcePoint"/>
                        <mxPoint x="1265.58" y="395.82000000000016" as="targetPoint"/>
                    </mxGeometry>
                </mxCell>
                <mxCell id="ylkIkgIqxPqcDmFFb2RJ-283" value="" style="endArrow=none;html=1;rounded=0;exitX=1;exitY=0.5;exitDx=0;exitDy=0;entryX=0;entryY=0;entryDx=0;entryDy=0;strokeColor=#000000;fontFamily=Times New Roman;fontSize=14;" parent="1" source="148" target="159" edge="1">
                    <mxGeometry width="50" height="50" relative="1" as="geometry">
                        <mxPoint x="1173" y="529" as="sourcePoint"/>
                        <mxPoint x="1249.58" y="411.82000000000016" as="targetPoint"/>
                    </mxGeometry>
                </mxCell>
                <mxCell id="ylkIkgIqxPqcDmFFb2RJ-284" value="" style="endArrow=none;html=1;rounded=0;exitX=1;exitY=0.5;exitDx=0;exitDy=0;entryX=0.066;entryY=0.197;entryDx=0;entryDy=0;entryPerimeter=0;strokeColor=#000000;fontFamily=Times New Roman;fontSize=14;" parent="1" source="58" target="70" edge="1">
                    <mxGeometry width="50" height="50" relative="1" as="geometry">
                        <mxPoint x="1019" y="278" as="sourcePoint"/>
                        <mxPoint x="1095.58" y="160.82000000000016" as="targetPoint"/>
                    </mxGeometry>
                </mxCell>
                <mxCell id="ylkIkgIqxPqcDmFFb2RJ-285" value="" style="endArrow=none;html=1;rounded=0;exitX=1;exitY=0.5;exitDx=0;exitDy=0;entryX=0.3;entryY=0.983;entryDx=0;entryDy=0;entryPerimeter=0;strokeColor=#000000;fontFamily=Times New Roman;fontSize=14;" parent="1" source="115" target="117" edge="1">
                    <mxGeometry width="50" height="50" relative="1" as="geometry">
                        <mxPoint x="1190" y="767" as="sourcePoint"/>
                        <mxPoint x="1266.58" y="649.8200000000002" as="targetPoint"/>
                    </mxGeometry>
                </mxCell>
                <mxCell id="ylkIkgIqxPqcDmFFb2RJ-286" value="" style="endArrow=none;html=1;rounded=0;exitX=1;exitY=0.5;exitDx=0;exitDy=0;entryX=0;entryY=1;entryDx=0;entryDy=0;strokeColor=#000000;fontFamily=Times New Roman;fontSize=14;" parent="1" source="115" target="116" edge="1">
                    <mxGeometry width="50" height="50" relative="1" as="geometry">
                        <mxPoint x="1222" y="770" as="sourcePoint"/>
                        <mxPoint x="1298.58" y="652.8200000000002" as="targetPoint"/>
                    </mxGeometry>
                </mxCell>
                <mxCell id="ylkIkgIqxPqcDmFFb2RJ-287" value="" style="endArrow=none;html=1;rounded=0;exitX=1;exitY=0.5;exitDx=0;exitDy=0;entryX=0.047;entryY=0.725;entryDx=0;entryDy=0;entryPerimeter=0;strokeColor=#000000;fontFamily=Times New Roman;fontSize=14;" parent="1" source="115" target="119" edge="1">
                    <mxGeometry width="50" height="50" relative="1" as="geometry">
                        <mxPoint x="1160" y="812" as="sourcePoint"/>
                        <mxPoint x="1236.58" y="694.8200000000002" as="targetPoint"/>
                    </mxGeometry>
                </mxCell>
                <mxCell id="ylkIkgIqxPqcDmFFb2RJ-288" value="" style="endArrow=none;html=1;rounded=0;entryX=0;entryY=1;entryDx=0;entryDy=0;exitX=1;exitY=0.5;exitDx=0;exitDy=0;strokeColor=#000000;fontFamily=Times New Roman;fontSize=14;" parent="1" source="115" target="118" edge="1">
                    <mxGeometry width="50" height="50" relative="1" as="geometry">
                        <mxPoint x="1117" y="803" as="sourcePoint"/>
                        <mxPoint x="1350.58" y="679.8200000000002" as="targetPoint"/>
                    </mxGeometry>
                </mxCell>
                <mxCell id="ylkIkgIqxPqcDmFFb2RJ-289" value="" style="endArrow=none;html=1;rounded=0;exitX=1;exitY=0.5;exitDx=0;exitDy=0;entryX=0.066;entryY=0.208;entryDx=0;entryDy=0;entryPerimeter=0;strokeColor=#000000;fontFamily=Times New Roman;fontSize=14;" parent="1" source="115" target="122" edge="1">
                    <mxGeometry width="50" height="50" relative="1" as="geometry">
                        <mxPoint x="1192" y="824" as="sourcePoint"/>
                        <mxPoint x="1268.58" y="706.8200000000002" as="targetPoint"/>
                    </mxGeometry>
                </mxCell>
                <mxCell id="ylkIkgIqxPqcDmFFb2RJ-290" value="" style="endArrow=none;html=1;rounded=0;entryX=0;entryY=0;entryDx=0;entryDy=0;exitX=1;exitY=0.5;exitDx=0;exitDy=0;strokeColor=#000000;fontFamily=Times New Roman;fontSize=14;" parent="1" source="115" target="120" edge="1">
                    <mxGeometry width="50" height="50" relative="1" as="geometry">
                        <mxPoint x="1160" y="823" as="sourcePoint"/>
                        <mxPoint x="1228.58" y="705.8200000000002" as="targetPoint"/>
                    </mxGeometry>
                </mxCell>
                <mxCell id="ylkIkgIqxPqcDmFFb2RJ-292" value="" style="endArrow=none;html=1;rounded=0;exitX=1;exitY=0.5;exitDx=0;exitDy=0;entryX=0;entryY=0.5;entryDx=0;entryDy=0;strokeColor=#000000;fontFamily=Times New Roman;fontSize=14;" parent="1" source="139" target="142" edge="1">
                    <mxGeometry width="50" height="50" relative="1" as="geometry">
                        <mxPoint x="1155" y="1054" as="sourcePoint"/>
                        <mxPoint x="1231.58" y="936.8200000000002" as="targetPoint"/>
                    </mxGeometry>
                </mxCell>
                <mxCell id="ylkIkgIqxPqcDmFFb2RJ-293" value="" style="endArrow=none;html=1;rounded=0;exitX=1;exitY=0.5;exitDx=0;exitDy=0;entryX=0;entryY=0;entryDx=0;entryDy=0;strokeColor=#000000;fontFamily=Times New Roman;fontSize=14;" parent="1" source="139" target="141" edge="1">
                    <mxGeometry width="50" height="50" relative="1" as="geometry">
                        <mxPoint x="1176" y="1107" as="sourcePoint"/>
                        <mxPoint x="1252.58" y="989.8200000000002" as="targetPoint"/>
                    </mxGeometry>
                </mxCell>
                <mxCell id="ylkIkgIqxPqcDmFFb2RJ-294" value="" style="endArrow=none;html=1;rounded=0;exitX=1;exitY=0.5;exitDx=0;exitDy=0;entryX=0;entryY=0.5;entryDx=0;entryDy=0;strokeColor=#000000;fontFamily=Times New Roman;fontSize=14;" parent="1" source="42" target="48" edge="1">
                    <mxGeometry width="50" height="50" relative="1" as="geometry">
                        <mxPoint x="1242" y="1368" as="sourcePoint"/>
                        <mxPoint x="1318.58" y="1250.8200000000002" as="targetPoint"/>
                    </mxGeometry>
                </mxCell>
                <mxCell id="ylkIkgIqxPqcDmFFb2RJ-295" value="" style="endArrow=none;html=1;rounded=0;exitX=1;exitY=0.5;exitDx=0;exitDy=0;entryX=0;entryY=0.5;entryDx=0;entryDy=0;strokeColor=#000000;fontFamily=Times New Roman;fontSize=14;" parent="1" source="42" target="47" edge="1">
                    <mxGeometry width="50" height="50" relative="1" as="geometry">
                        <mxPoint x="1303" y="1329" as="sourcePoint"/>
                        <mxPoint x="1379.58" y="1211.8200000000002" as="targetPoint"/>
                    </mxGeometry>
                </mxCell>
                <mxCell id="ylkIkgIqxPqcDmFFb2RJ-296" value="" style="endArrow=none;html=1;rounded=0;exitX=1;exitY=0.5;exitDx=0;exitDy=0;entryX=0;entryY=0.5;entryDx=0;entryDy=0;strokeColor=#000000;fontFamily=Times New Roman;fontSize=14;" parent="1" source="42" target="46" edge="1">
                    <mxGeometry width="50" height="50" relative="1" as="geometry">
                        <mxPoint x="1265" y="1391" as="sourcePoint"/>
                        <mxPoint x="1341.58" y="1273.8200000000002" as="targetPoint"/>
                    </mxGeometry>
                </mxCell>
                <mxCell id="ylkIkgIqxPqcDmFFb2RJ-297" value="" style="endArrow=none;html=1;rounded=0;entryX=0.054;entryY=0.254;entryDx=0;entryDy=0;entryPerimeter=0;exitX=1;exitY=0.5;exitDx=0;exitDy=0;strokeColor=#000000;fontFamily=Times New Roman;fontSize=14;" parent="1" source="42" target="50" edge="1">
                    <mxGeometry width="50" height="50" relative="1" as="geometry">
                        <mxPoint x="1116" y="1370" as="sourcePoint"/>
                        <mxPoint x="1366.58" y="1277.8200000000002" as="targetPoint"/>
                    </mxGeometry>
                </mxCell>
                <mxCell id="ylkIkgIqxPqcDmFFb2RJ-298" value="" style="endArrow=none;html=1;rounded=0;exitX=1;exitY=0.5;exitDx=0;exitDy=0;entryX=0;entryY=0;entryDx=0;entryDy=0;strokeColor=#000000;fontFamily=Times New Roman;fontSize=14;" parent="1" source="42" target="52" edge="1">
                    <mxGeometry width="50" height="50" relative="1" as="geometry">
                        <mxPoint x="1177" y="1401" as="sourcePoint"/>
                        <mxPoint x="1253.58" y="1283.8200000000002" as="targetPoint"/>
                    </mxGeometry>
                </mxCell>
                <mxCell id="ylkIkgIqxPqcDmFFb2RJ-299" value="" style="endArrow=none;html=1;rounded=0;exitX=0.5;exitY=0;exitDx=0;exitDy=0;entryX=0.5;entryY=1;entryDx=0;entryDy=0;strokeColor=#000000;fontFamily=Times New Roman;fontSize=14;" parent="1" source="29" target="30" edge="1">
                    <mxGeometry width="50" height="50" relative="1" as="geometry">
                        <mxPoint x="153" y="684.1800000000001" as="sourcePoint"/>
                        <mxPoint x="229.57999999999993" y="567.0000000000002" as="targetPoint"/>
                    </mxGeometry>
                </mxCell>
                <mxCell id="ylkIkgIqxPqcDmFFb2RJ-300" value="" style="endArrow=none;html=1;rounded=0;exitX=0.5;exitY=0;exitDx=0;exitDy=0;entryX=0.895;entryY=0.802;entryDx=0;entryDy=0;entryPerimeter=0;strokeColor=#000000;fontFamily=Times New Roman;fontSize=14;" parent="1" source="99" target="102" edge="1">
                    <mxGeometry width="50" height="50" relative="1" as="geometry">
                        <mxPoint x="712" y="-38" as="sourcePoint"/>
                        <mxPoint x="713" y="-92" as="targetPoint"/>
                    </mxGeometry>
                </mxCell>
                <mxCell id="ylkIkgIqxPqcDmFFb2RJ-301" value="" style="endArrow=none;html=1;rounded=0;entryX=0.5;entryY=1;entryDx=0;entryDy=0;strokeColor=#000000;fontFamily=Times New Roman;fontSize=14;" parent="1" target="103" edge="1">
                    <mxGeometry width="50" height="50" relative="1" as="geometry">
                        <mxPoint x="779" y="11" as="sourcePoint"/>
                        <mxPoint x="827.5799999999999" y="-189.17999999999984" as="targetPoint"/>
                    </mxGeometry>
                </mxCell>
                <mxCell id="ylkIkgIqxPqcDmFFb2RJ-302" value="" style="endArrow=none;html=1;rounded=0;exitX=0.5;exitY=0;exitDx=0;exitDy=0;entryX=0;entryY=1;entryDx=0;entryDy=0;strokeColor=#000000;fontFamily=Times New Roman;fontSize=14;" parent="1" source="99" target="106" edge="1">
                    <mxGeometry width="50" height="50" relative="1" as="geometry">
                        <mxPoint x="815.42" y="-19.41" as="sourcePoint"/>
                        <mxPoint x="891.9999999999999" y="-136.58999999999983" as="targetPoint"/>
                    </mxGeometry>
                </mxCell>
                <mxCell id="ylkIkgIqxPqcDmFFb2RJ-303" value="" style="endArrow=none;html=1;rounded=0;entryX=0.008;entryY=0.619;entryDx=0;entryDy=0;entryPerimeter=0;strokeColor=#000000;fontFamily=Times New Roman;fontSize=14;" parent="1" target="104" edge="1">
                    <mxGeometry width="50" height="50" relative="1" as="geometry">
                        <mxPoint x="780" y="10" as="sourcePoint"/>
                        <mxPoint x="921.9999999999999" y="-145.99999999999983" as="targetPoint"/>
                    </mxGeometry>
                </mxCell>
                <mxCell id="ylkIkgIqxPqcDmFFb2RJ-304" value="" style="endArrow=none;html=1;rounded=0;entryX=0;entryY=0;entryDx=0;entryDy=0;strokeColor=#000000;fontFamily=Times New Roman;fontSize=14;" parent="1" target="105" edge="1">
                    <mxGeometry width="50" height="50" relative="1" as="geometry">
                        <mxPoint x="778" y="12" as="sourcePoint"/>
                        <mxPoint x="901.9999999999999" y="-116.99999999999983" as="targetPoint"/>
                    </mxGeometry>
                </mxCell>
                <mxCell id="ylkIkgIqxPqcDmFFb2RJ-305" value="" style="endArrow=none;html=1;rounded=0;exitX=0.5;exitY=0;exitDx=0;exitDy=0;entryX=1;entryY=0.5;entryDx=0;entryDy=0;strokeColor=#000000;fontFamily=Times New Roman;fontSize=14;" parent="1" source="99" target="107" edge="1">
                    <mxGeometry width="50" height="50" relative="1" as="geometry">
                        <mxPoint x="646" y="-32" as="sourcePoint"/>
                        <mxPoint x="722.5799999999999" y="-149.17999999999984" as="targetPoint"/>
                    </mxGeometry>
                </mxCell>
                <mxCell id="ylkIkgIqxPqcDmFFb2RJ-306" value="" style="endArrow=none;html=1;rounded=0;exitX=0.5;exitY=0;exitDx=0;exitDy=0;entryX=0.5;entryY=1;entryDx=0;entryDy=0;strokeColor=#000000;fontFamily=Times New Roman;fontSize=14;" parent="1" source="35" target="30" edge="1">
                    <mxGeometry width="50" height="50" relative="1" as="geometry">
                        <mxPoint x="380" y="604" as="sourcePoint"/>
                        <mxPoint x="456.5799999999999" y="486.82000000000016" as="targetPoint"/>
                    </mxGeometry>
                </mxCell>
                <mxCell id="wyFP0IQs_SlAswJV2CrF-227" value="" style="endArrow=none;html=1;rounded=0;exitX=1;exitY=0.5;exitDx=0;exitDy=0;entryX=0;entryY=0.5;entryDx=0;entryDy=0;strokeColor=#000000;fontFamily=Times New Roman;fontSize=14;" parent="1" source="30" target="32" edge="1">
                    <mxGeometry width="50" height="50" relative="1" as="geometry">
                        <mxPoint x="417" y="553" as="sourcePoint"/>
                        <mxPoint x="467" y="503" as="targetPoint"/>
                    </mxGeometry>
                </mxCell>
                <mxCell id="wyFP0IQs_SlAswJV2CrF-229" value="" style="endArrow=none;html=1;rounded=0;exitX=1;exitY=0.5;exitDx=0;exitDy=0;strokeColor=#000000;fontFamily=Times New Roman;fontSize=14;" parent="1" source="32" edge="1">
                    <mxGeometry width="50" height="50" relative="1" as="geometry">
                        <mxPoint x="573" y="559" as="sourcePoint"/>
                        <mxPoint x="631" y="525" as="targetPoint"/>
                    </mxGeometry>
                </mxCell>
                <mxCell id="wyFP0IQs_SlAswJV2CrF-230" value="" style="endArrow=none;html=1;rounded=0;exitX=1.012;exitY=0.434;exitDx=0;exitDy=0;exitPerimeter=0;entryX=0;entryY=0.525;entryDx=0;entryDy=0;entryPerimeter=0;strokeColor=#000000;fontFamily=Times New Roman;fontSize=14;" parent="1" source="15" target="40" edge="1">
                    <mxGeometry width="50" height="50" relative="1" as="geometry">
                        <mxPoint x="766" y="562" as="sourcePoint"/>
                        <mxPoint x="808" y="527" as="targetPoint"/>
                    </mxGeometry>
                </mxCell>
                <mxCell id="wyFP0IQs_SlAswJV2CrF-231" value="" style="endArrow=none;html=1;rounded=0;exitX=1;exitY=0.5;exitDx=0;exitDy=0;entryX=0.001;entryY=0.398;entryDx=0;entryDy=0;entryPerimeter=0;strokeColor=#000000;fontFamily=Times New Roman;fontSize=14;" parent="1" source="40" target="148" edge="1">
                    <mxGeometry width="50" height="50" relative="1" as="geometry">
                        <mxPoint x="913" y="546" as="sourcePoint"/>
                        <mxPoint x="963" y="496" as="targetPoint"/>
                    </mxGeometry>
                </mxCell>
                <mxCell id="wyFP0IQs_SlAswJV2CrF-232" value="" style="endArrow=none;html=1;rounded=0;entryX=0.5;entryY=1;entryDx=0;entryDy=0;exitX=0.5;exitY=0;exitDx=0;exitDy=0;strokeColor=#000000;fontFamily=Times New Roman;fontSize=14;" parent="1" source="15" target="13" edge="1">
                    <mxGeometry width="50" height="50" relative="1" as="geometry">
                        <mxPoint x="666" y="490" as="sourcePoint"/>
                        <mxPoint x="716" y="440" as="targetPoint"/>
                    </mxGeometry>
                </mxCell>
                <mxCell id="wyFP0IQs_SlAswJV2CrF-234" value="" style="endArrow=none;html=1;rounded=0;exitX=1;exitY=0.5;exitDx=0;exitDy=0;entryX=0;entryY=0.5;entryDx=0;entryDy=0;strokeColor=#000000;fontFamily=Times New Roman;fontSize=14;" parent="1" source="98" target="58" edge="1">
                    <mxGeometry width="50" height="50" relative="1" as="geometry">
                        <mxPoint x="812" y="253" as="sourcePoint"/>
                        <mxPoint x="862" y="203" as="targetPoint"/>
                    </mxGeometry>
                </mxCell>
                <mxCell id="wyFP0IQs_SlAswJV2CrF-235" value="" style="endArrow=none;html=1;rounded=0;entryX=0.425;entryY=1.041;entryDx=0;entryDy=0;entryPerimeter=0;strokeColor=#000000;fontFamily=Times New Roman;fontSize=14;" parent="1" source="98" target="99" edge="1">
                    <mxGeometry width="50" height="50" relative="1" as="geometry">
                        <mxPoint x="738" y="138" as="sourcePoint"/>
                        <mxPoint x="788" y="88" as="targetPoint"/>
                    </mxGeometry>
                </mxCell>
                <mxCell id="wyFP0IQs_SlAswJV2CrF-237" value="" style="endArrow=none;html=1;rounded=0;exitX=0.5;exitY=1;exitDx=0;exitDy=0;entryX=0.192;entryY=-0.003;entryDx=0;entryDy=0;entryPerimeter=0;strokeColor=#000000;fontFamily=Times New Roman;fontSize=14;" parent="1" source="57" target="148" edge="1">
                    <mxGeometry width="50" height="50" relative="1" as="geometry">
                        <mxPoint x="979" y="446" as="sourcePoint"/>
                        <mxPoint x="1029" y="396" as="targetPoint"/>
                    </mxGeometry>
                </mxCell>
                <mxCell id="wyFP0IQs_SlAswJV2CrF-238" value="" style="endArrow=none;html=1;rounded=0;exitX=0.5;exitY=0;exitDx=0;exitDy=0;entryX=0.5;entryY=1;entryDx=0;entryDy=0;strokeColor=#000000;fontFamily=Times New Roman;fontSize=14;" parent="1" source="150" target="148" edge="1">
                    <mxGeometry width="50" height="50" relative="1" as="geometry">
                        <mxPoint x="935" y="627" as="sourcePoint"/>
                        <mxPoint x="969" y="575" as="targetPoint"/>
                    </mxGeometry>
                </mxCell>
                <mxCell id="wyFP0IQs_SlAswJV2CrF-239" value="" style="endArrow=none;html=1;rounded=0;exitX=0.449;exitY=-0.017;exitDx=0;exitDy=0;exitPerimeter=0;entryX=0.5;entryY=1;entryDx=0;entryDy=0;entryPerimeter=0;strokeColor=#000000;fontFamily=Times New Roman;fontSize=14;" parent="1" source="115" target="150" edge="1">
                    <mxGeometry width="50" height="50" relative="1" as="geometry">
                        <mxPoint x="939" y="768" as="sourcePoint"/>
                        <mxPoint x="974" y="703" as="targetPoint"/>
                    </mxGeometry>
                </mxCell>
                <mxCell id="wyFP0IQs_SlAswJV2CrF-240" value="" style="endArrow=none;html=1;rounded=0;entryX=0.024;entryY=0.294;entryDx=0;entryDy=0;entryPerimeter=0;strokeColor=#000000;fontFamily=Times New Roman;fontSize=14;" parent="1" target="121" edge="1">
                    <mxGeometry width="50" height="50" relative="1" as="geometry">
                        <mxPoint x="1038" y="812" as="sourcePoint"/>
                        <mxPoint x="1119" y="847" as="targetPoint"/>
                    </mxGeometry>
                </mxCell>
                <mxCell id="wyFP0IQs_SlAswJV2CrF-241" value="" style="endArrow=none;html=1;rounded=0;entryX=0.5;entryY=1;entryDx=0;entryDy=0;exitX=0.5;exitY=0;exitDx=0;exitDy=0;strokeColor=#000000;fontFamily=Times New Roman;fontSize=14;" parent="1" source="139" target="134" edge="1">
                    <mxGeometry width="50" height="50" relative="1" as="geometry">
                        <mxPoint x="943" y="1080" as="sourcePoint"/>
                        <mxPoint x="993" y="1030" as="targetPoint"/>
                    </mxGeometry>
                </mxCell>
                <mxCell id="wyFP0IQs_SlAswJV2CrF-242" value="" style="endArrow=classic;html=1;rounded=0;exitX=0;exitY=0.5;exitDx=0;exitDy=0;entryX=1;entryY=0.5;entryDx=0;entryDy=0;strokeColor=#000000;fontFamily=Times New Roman;fontSize=14;" parent="1" source="79" target="81" edge="1">
                    <mxGeometry width="50" height="50" relative="1" as="geometry">
                        <mxPoint x="131" y="281" as="sourcePoint"/>
                        <mxPoint x="181" y="231" as="targetPoint"/>
                    </mxGeometry>
                </mxCell>
            </root>
        </mxGraphModel>
    </diagram>
</mxfile>